<?xml version="1.0" encoding="utf-8"?>
<!-- Generator: Adobe Illustrator 18.0.0, SVG Export Plug-In . SVG Version: 6.00 Build 0)  -->
<!DOCTYPE svg PUBLIC "-//W3C//DTD SVG 1.1//EN" "http://www.w3.org/Graphics/SVG/1.1/DTD/svg11.dtd">
<svg version="1.1" id="Layer_1" xmlns="http://www.w3.org/2000/svg" xmlns:xlink="http://www.w3.org/1999/xlink" x="0px" y="0px"
	 viewBox="0 0 350 350" enable-background="new 0 0 350 350" xml:space="preserve">
<g>
	<path fill="#F8981D" d="M274,128.4c-3.1-1.8-6.4-2-9.8-0.8c-3.6,1.3-6.1,3.6-7.4,6.9c-1.3,3.3-1.3,7,0.2,11.1
		c1.4,4,3.7,6.9,6.9,8.6s6.4,1.9,10,0.6c3.4-1.3,5.7-3.5,7-6.9c1.3-3.4,1.3-7-0.1-10.7C279.4,133,277.2,130.2,274,128.4z"/>
	<path fill="#F8981D" d="M220.3,147.8c-3.3-1.6-6.8-1.8-10.5-0.4c-3.7,1.4-6.3,3.7-7.7,7c-1.4,3.4-1.4,7,0,10.8
		c1.5,4.2,3.9,7.1,7,8.8c3.3,1.6,6.8,1.8,10.5,0.4c3.9-1.4,6.4-3.7,7.8-7c1.4-3.3,1.3-7-0.1-11.1
		C225.7,152.4,223.4,149.4,220.3,147.8z"/>
	<path fill="#F8981D" d="M60.3,206c-3.2-1.8-6.4-1.9-9.9-0.7c-3.7,1.4-6.2,3.7-7.2,7.4c-1,3.1-0.8,6.6,0.6,10.6
		c1.4,3.9,3.5,6.6,6.3,8.4c3,1.9,6.5,2.2,10.3,0.8c3.7-1.4,6.2-3.7,7.3-7.4c1.1-3.1,0.9-6.6-0.5-10.5
		C65.7,210.6,63.3,207.8,60.3,206z"/>
	<path fill="#F8981D" d="M166.7,167.4c-3.2-1.8-6.4-2-9.8-0.8c-3.6,1.3-6.1,3.6-7.4,6.9c-1.3,3.3-1.3,7,0.2,11.1
		c1.4,4,3.7,6.9,6.9,8.6c3.1,1.8,6.4,1.9,10,0.6c3.4-1.3,5.7-3.5,7-6.9c1.3-3.4,1.3-7-0.1-10.7C172.1,172.1,169.9,169.2,166.7,167.4
		z"/>
	<path fill="#F8981D" d="M175,0C78.4,0,0,78.4,0,175s78.4,175,175,175s175-78.4,175-175S271.6,0,175,0z M74.2,163.2
		c0.8-1.8,2.1-2.9,3.8-3.5c1.8-0.7,3.5-0.6,5.2,0.2c1.6,0.8,2.8,2,3.5,3.9c0.7,1.8,0.6,3.5-0.2,5.2c-0.8,1.6-2,2.8-3.8,3.5
		c-1.8,0.7-3.5,0.6-5.2-0.2c-1.8-0.8-2.9-2.1-3.5-3.8C73.3,166.6,73.4,164.8,74.2,163.2z M85.4,250.6c-2.2,5.8-6.6,9.9-13.3,12.4
		c-5.6,2.1-10.8,2.2-15.6,0.5c-4.9-1.8-8.6-5.4-11.2-10.6l9.8-3.6c1.2,2,2.3,3.4,3.6,4.1c3,1.9,6.4,2.1,10.3,0.7
		c7.1-2.6,9.1-8.3,6-17l-2.1-6c-2.4,5.4-6.2,9-11.2,10.9c-5.7,2.1-11.2,1.8-16.4-1c-5.2-2.9-9-7.5-11.3-13.8
		c-2.2-6.2-2.5-12-0.6-17.6c2-6,6.1-10,12.1-12.2c5.4-2,10.5-1.5,15.4,1.2l-1.8-4.8l9.8-3.5l15.1,41.3c0.7,2,1.3,3.7,1.8,5.4
		c0.5,1.5,0.7,2.9,0.9,4.2C86.9,244.3,86.6,247.6,85.4,250.6z M97.2,227.6l-15.4-42.2l9.8-3.5l15.4,42.2L97.2,227.6z M120.6,219.1
		l-12-33.1l-3.5,1.3l-3.3-9.1l3.5-1.3l-5.9-16.3c-2-5.4-2.3-9.5-1.3-12.2c1.4-4,4.6-6.9,9.4-8.6c1.8-0.6,4.1-0.9,7.1-0.8l3.6,10
		l-1.2-0.1c-2.4-0.4-4.4-0.2-5.8,0.2c-1.8,0.6-2.7,1.6-2.8,3.1c-0.1,1.4,0.4,3.9,1.6,7.4l5,13.9l10.6-3.9l3.3,9.1l-10.6,3.9l12,33.1
		L120.6,219.1z M183.6,190.4c-2.2,5.6-6.2,9.3-11.9,11.4c-4.9,1.8-10.1,1.4-15.4-1.2l10.1,27.8l-9.8,3.5l-23.8-65.3l9.8-3.5l1.6,4.6
		c2.4-5.2,6.1-8.8,11-10.5c5.8-2.1,11.4-1.8,16.7,1.2c5.4,2.9,9.2,7.6,11.5,14C185.8,178.8,185.8,184.8,183.6,190.4z M236.5,171.1
		c-2.8,5.8-7.5,9.9-13.9,12.2c-6.3,2.3-12.5,2.1-18.3-0.7c-5.8-2.7-9.9-7.4-12.2-13.8c-2.2-6.1-2-12.1,0.9-18
		c2.8-5.8,7.4-9.9,13.6-12.2c6.3-2.3,12.5-2.1,18.4,0.6s10,7.2,12.2,13.5C239.5,159.1,239.3,165.2,236.5,171.1z M291,151.3
		c-2.2,5.6-6.2,9.5-11.9,11.4c-4.9,1.8-10.1,1.4-15.4-1.2l10.1,27.8l-9.8,3.5l-23.8-65.3l9.8-3.5l1.6,4.6c2.4-5.2,6.1-8.8,11-10.5
		c5.8-2.1,11.4-1.8,16.7,1.2c5.4,2.9,9.2,7.6,11.5,14C293.2,139.8,293.2,145.7,291,151.3z M284.3,83.6l9.8-3.6l19,52.2l-9.8,3.6
		L284.3,83.6z M314.1,150c-1.8,0.6-3.4,0.6-4.9-0.1c-1.6-0.7-2.7-2-3.3-3.7c-0.6-1.6-0.5-3.3,0.2-4.9c0.7-1.6,2-2.7,3.6-3.4
		c1.6-0.6,3.3-0.5,4.9,0.2c1.6,0.7,2.7,2,3.4,3.6c0.6,1.6,0.6,3.4-0.2,4.9C317,148.4,315.8,149.4,314.1,150z"/>
</g>
</svg>
